:SAMPLES-PER-SECOND 30
:FRAME-RANGE 1-1700
:FULLY-SPECIFIED
:DEGREES
160
root  -56.0653 39.458 9.62256 -176.775 51.4161 -179.774
RightUpLeg  -18.0301 -1.07818 2.30863
RightLeg  9.87624 -5.8784 -0.228603
RightFoot  -3.44618 -0.204354 2.62007
RightToes  6.35937e-011 1.2921e-014 -6.02303e-014
Spine  -0.760013 -4.48128 -4.81632
Spine1  5.20804 -4.89831 1.60489
HEad  23.7742 5.72411 2.6576
LeftShoulder1  2.51475 -6.42298 -19.6263
LeftArm  9.96034 -9.77951 -48.3391
LeftForeArm  40.6391 0.648094 -15.2047
LeftHand  -0.0329122 5.53584 -0.83387
RightShoulder  1.48003 1.32017 25.9291
RightArm  -8.68916 7.4313 52.6328
RightForeArm  73.1419 -1.13009 11.8773
RightHand  0.140044 -6.65181 -14.6041
LeftUpLeg  -8.26368 4.41643 2.88079
LeftLeg  14.7732 7.81781 2.82786
LeftFoot  -9.09494 0.143209 -4.52263
LeftToes  -1.9349e-011 5.45182e-011 1.33515e-010
161
root  -55.7235 39.4456 9.02969 -177.256 53.3892 179.795
RightUpLeg  -18.3352 -0.367623 1.93631
RightLeg  8.0206 -6.84617 0.0797985
RightFoot  -1.14933 -0.274782 2.99181
RightToes  6.35937e-011 1.2921e-014 -6.02303e-014
Spine  -0.945158 -4.58673 -4.45341
Spine1  5.52195 -5.10463 1.93188
HEad  24.5234 7.57917 1.57407
LeftShoulder1  2.65729 -6.96982 -19.6388
LeftArm  9.63055 -11.1708 -49.3963
LeftForeArm  40.9019 1.60627 -15.2936
LeftHand  -0.0358612 5.74508 -0.83127
RightShoulder  1.49416 1.44618 25.3559
RightArm  -6.63681 7.88567 52.2971
RightForeArm  72.3258 -0.149222 12.5542
RightHand  0.136106 -6.69591 -13.8588
LeftUpLeg  -6.7301 3.70083 2.05208
LeftLeg  14.8151 10.4953 3.72884
LeftFoot  -9.89907 0.121346 -4.92663
LeftToes  -1.9349e-011 5.45182e-011 1.33515e-010
162
root  -55.3449 39.3271 8.45948 -178.032 55.0557 179.319
RightUpLeg  -19.0052 -0.608902 1.81265
RightLeg  9.30389 -6.28921 -0.305275
RightFoot  -2.0861 -0.13345 1.47253
RightToes  6.35937e-011 1.2921e-014 -6.02303e-014
Spine  -0.818962 -4.73348 -4.0849
Spine1  5.78884 -5.41495 2.44309
HEad  25.3778 9.40011 0.320254
LeftShoulder1  2.77549 -7.50885 -19.4277
LeftArm  8.42535 -12.4106 -50.7906
LeftForeArm  42.001 2.61886 -15.1775
LeftHand  -0.037922 5.90515 -0.774793
RightShoulder  1.52318 1.62636 24.7733
RightArm  -4.31479 8.95003 51.9785
RightForeArm  71.2924 0.493995 13.1024
RightHand  0.154812 -6.89069 -13.5763
LeftUpLeg  -5.739 3.63644 1.37714
LeftLeg  16.4296 12.2103 4.48975
LeftFoot  -11.2836 0.070258 -5.29996
LeftToes  -1.9349e-011 5.45182e-011 1.33515e-010
163
root  -54.9095 39.1822 7.91898 -178.637 56.6977 179.417
RightUpLeg  -19.6743 -0.882022 2.21397
RightLeg  12.5757 -4.1322 -0.748157
RightFoot  -1.39554 -0.0723496 0.721935
RightToes  6.35937e-011 1.2921e-014 -6.02303e-014
Spine  -0.677162 -4.77166 -3.29715
Spine1  6.48008 -5.69794 3.14903
HEad  26.2474 11.2104 -1.11562
LeftShoulder1  2.91756 -8.16746 -19.1738
LeftArm  9.29259 -13.4214 -52.0698
LeftForeArm  41.2624 2.48926 -15.325
LeftHand  -0.0369705 5.89509 -0.895641
RightShoulder  1.50145 1.66611 24.0518
RightArm  -3.32144 10.7264 52.2185
RightForeArm  71.3225 -0.0243056 13.3664
RightHand  0.156573 -6.93756 -13.3319
LeftUpLeg  -4.76268 4.02529 1.21592
LeftLeg  18.7944 13.2564 5.31363
LeftFoot  -12.7825 0.00107696 -5.99572
LeftToes  -1.9349e-011 5.45182e-011 1.33515e-010
164
root  -54.398 39.0235 7.44688 -179.298 58.506 179.397
RightUpLeg  -20.1429 0.0664207 2.49636
RightLeg  16.0909 -1.28021 -0.570137
RightFoot  0.615426 0.00498298 -0.00750522
RightToes  6.35937e-011 1.2921e-014 -6.02303e-014
Spine  -0.663224 -4.69388 -2.61182
Spine1  7.21191 -5.81856 3.69533
HEad  27.3985 12.8156 -2.19611
LeftShoulder1  3.02414 -8.71631 -18.8768
LeftArm  8.3037 -14.4096 -53.2901
LeftForeArm  42.2849 2.84035 -15.1436
LeftHand  -0.0362873 5.91695 -0.707682
RightShoulder  1.58181 2.01407 23.5735
RightArm  -2.33326 12.7297 52.3749
RightForeArm  70.77 -0.749803 13.6622
RightHand  0.191581 -7.23521 -13.4253
LeftUpLeg  -4.55223 5.00178 1.2592
LeftLeg  22.7107 13.1803 6.31208
LeftFoot  -13.9026 -0.0954102 -7.97892
LeftToes  -1.9349e-011 5.45182e-011 1.33515e-010
165
root  -53.8758 38.9009 7.05582 179.677 60.4884 178.922
RightUpLeg  -20.4383 1.91751 2.61815
RightLeg  19.3423 -1.6515 -0.856596
RightFoot  0.999937 0.368295 -3.34028
RightToes  6.35937e-011 1.2921e-014 -6.02303e-014
Spine  -0.32235 -4.46385 -1.37441
Spine1  7.64059 -5.60954 3.72383
HEad  28.9301 14.2224 -2.96286
LeftShoulder1  3.07796 -8.8897 -18.9666
LeftArm  12.2533 -15.5284 -53.7529
LeftForeArm  40.1366 1.22374 -15.6368
LeftHand  -0.0455775 6.49657 -0.9409
RightShoulder  1.72717 2.50313 23.5902
RightArm  -2.07625 14.8069 52.4739
RightForeArm  70.3897 -1.98724 13.8058
RightHand  0.172487 -7.05932 -13.4749
LeftUpLeg  -5.59106 7.55026 1.66074
LeftLeg  28.671 10.8238 6.68816
LeftFoot  -13.6035 -0.148329 -11.5963
LeftToes  -1.9349e-011 5.45182e-011 1.33515e-010
166
root  -53.4527 38.739 6.79897 179.325 61.4771 178.872
RightUpLeg  -20.6493 3.22535 2.66632
RightLeg  21.9245 -2.06065 -1.13275
RightFoot  -0.780044 0.291683 -3.21021
RightToes  6.35937e-011 1.2921e-014 -6.02303e-014
Spine  0.691263 -4.4373 0.245373
Spine1  7.5589 -5.5151 3.75669
HEad  30.0928 15.1639 -3.71813
LeftShoulder1  3.15219 -9.24689 -18.8288
LeftArm  13.6829 -17.2635 -54.405
LeftForeArm  40.5777 1.06414 -15.7866
LeftHand  -0.0450676 6.55981 -0.718616
RightShoulder  1.69651 2.40674 23.5498
RightArm  -4.28638 16.8661 53.8942
RightForeArm  72.626 -4.14275 13.1937
RightHand  0.199503 -7.19946 -14.1265
LeftUpLeg  -10.0014 7.6445 2.37238
LeftLeg  39.0741 8.61187 7.8004
LeftFoot  -9.73666 0.298218 -17.0429
LeftToes  -1.9349e-011 5.45182e-011 1.33515e-010
167
root  -53.1492 38.5555 6.60916 179.824 61.3588 179.573
RightUpLeg  -21.1207 1.15947 3.1988
RightLeg  24.3255 -0.412383 -0.433269
RightFoot  -2.55681 0.254127 -3.5309
RightToes  6.35937e-011 1.2921e-014 -6.02303e-014
Spine  2.43026 -4.4417 2.04762
Spine1  7.1719 -5.53816 4.28031
HEad  30.2271 14.9732 -4.32873
LeftShoulder1  3.21018 -9.914 -17.9305
LeftArm  14.9462 -20.0274 -56.0755
LeftForeArm  40.6009 1.63179 -15.9881
LeftHand  -0.0460077 6.71676 -0.284613
RightShoulder  1.79916 2.80788 23.2765
RightArm  -4.56063 18.4851 54.5061
RightForeArm  72.2871 -4.57308 13.0556
RightHand  0.190847 -7.13284 -14.0834
LeftUpLeg  -17.5649 7.05512 3.53543
LeftLeg  51.6246 5.7666 8.21356
LeftFoot  -0.375156 1.50967 -15.6243
LeftToes  -1.9349e-011 5.45182e-011 1.33515e-010
168
root  -52.8838 38.3857 6.49773 -178.832 61.0453 -178.764
RightUpLeg  -21.3668 -1.24659 4.31763
RightLeg  26.0477 1.29783 0.452848
RightFoot  -3.8499 0.253536 -4.26617
RightToes  6.35937e-011 1.2921e-014 -6.02303e-014
Spine  4.23127 -4.15138 3.6497
Spine1  6.7657 -5.43476 5.44296
HEad  30.2729 13.8098 -4.21269
LeftShoulder1  3.24334 -10.7302 -16.6497
LeftArm  14.7795 -23.2992 -58.299
LeftForeArm  42.1415 2.3935 -15.9316
LeftHand  -0.0488069 6.89806 -0.622903
RightShoulder  1.88107 3.1379 23.0354
RightArm  -3.43801 20.246 54.8448
RightForeArm  71.4591 -4.44373 13.3662
RightHand  0.162192 -6.92937 -13.7783
LeftUpLeg  -25.3628 7.36006 5.14108
LeftLeg  61.4567 1.89321 4.37358
LeftFoot  4.60657 0.921133 -6.77143
LeftToes  -1.9349e-011 5.45182e-011 1.33515e-010
169
root  -52.6267 38.38 6.44521 -178.394 61.0043 -178.172
RightUpLeg  -21.0128 -1.57206 4.77382
RightLeg  26.3729 1.47923 0.557129
RightFoot  -4.30269 0.242583 -4.41298
RightToes  6.35937e-011 1.2921e-014 -6.02303e-014
Spine  6.06761 -3.77757 4.13997
Spine1  6.05225 -5.28706 6.44061
HEad  31.0227 12.5339 -3.40263
LeftShoulder1  3.26432 -11.238 -15.9245
LeftArm  16.7823 -26.8708 -59.8279
LeftForeArm  41.369 2.53228 -16.1626
LeftHand  -0.049477 7.04414 -0.708127
RightShoulder  2.03278 3.56224 23.4769
RightArm  -1.61524 22.9032 54.8129
RightForeArm  70.346 -5.1671 13.779
RightHand  0.171766 -6.94465 -14.3053
LeftUpLeg  -32.3983 7.72255 6.16631
LeftLeg  67.9332 0.145079 1.1632
LeftFoot  3.18543 1.03342 -8.25095
LeftToes  -1.9349e-011 5.45182e-011 1.33515e-010
170
root  -52.3933 38.4512 6.39063 -179.375 61.0177 -179.129
RightUpLeg  -20.3458 -2.17556 4.43097
RightLeg  26.1517 2.04387 0.851524
RightFoot  -4.59843 0.260052 -4.93613
RightToes  6.35937e-011 1.2921e-014 -6.02303e-014
Spine  7.9379 -3.49186 3.91113
Spine1  5.30372 -5.18391 6.90954
HEad  31.8064 11.3783 -2.73271
LeftShoulder1  3.28717 -11.7032 -15.3278
LeftArm  16.5123 -30.153 -60.7493
LeftForeArm  42.1062 2.83623 -16.0518
LeftHand  -0.0491703 7.25551 -0.54867
RightShoulder  2.17157 4.04639 23.4229
RightArm  -3.90157 25.3434 55.7695
RightForeArm  72.8562 -6.38463 12.9665
RightHand  0.183689 -7.03351 -14.3813
LeftUpLeg  -38.9077 8.14883 5.57151
LeftLeg  71.5007 0.315357 1.98514
LeftFoot  0.319339 0.889157 -8.71623
LeftToes  -1.9349e-011 5.45182e-011 1.33515e-010
171
root  -52.1907 38.5997 6.36011 178.949 60.791 179.143
RightUpLeg  -19.478 -3.4123 3.63743
RightLeg  25.5121 2.89072 1.26798
RightFoot  -4.60406 0.266845 -5.05594
RightToes  6.35937e-011 1.2921e-014 -6.02303e-014
Spine  9.26248 -3.25467 3.22746
Spine1  5.25512 -5.19318 7.1556
HEad  32.2799 10.2287 -2.64101
LeftShoulder1  3.30484 -12.1598 -14.7419
LeftArm  16.377 -33.4044 -61.5659
LeftForeArm  42.641 2.798 -15.9212
LeftHand  -0.0437562 7.45051 -0.16126
RightShoulder  2.23198 4.35321 23.0104
RightArm  -6.00841 27.6016 57.0431
RightForeArm  74.3685 -6.46914 11.9936
RightHand  0.223051 -7.34084 -14.4909
LeftUpLeg  -44.9453 8.85782 3.69326
LeftLeg  72.9063 1.05041 4.88505
LeftFoot  -2.23507 0.698662 -8.59481
LeftToes  -1.9349e-011 5.45182e-011 1.33515e-010
172
root  -52.0087 38.7334 6.33402 177.001 60.6758 177.102
RightUpLeg  -18.724 -4.21681 2.62868
RightLeg  25.0071 3.60763 1.61061
RightFoot  -4.64393 0.269336 -5.08309
RightToes  6.35937e-011 1.2921e-014 -6.02303e-014
Spine  10.6477 -2.92903 2.33994
Spine1  4.92006 -5.15216 7.517
HEad  32.9269 9.0653 -2.79298
LeftShoulder1  3.29304 -12.5501 -14.08
LeftArm  15.9367 -36.2129 -62.4958
LeftForeArm  43.7728 2.75865 -15.7171
LeftHand  -0.0433657 7.5467 -0.10852
RightShoulder  2.26927 4.52821 22.8277
RightArm  -6.67154 29.7096 58.0725
RightForeArm  74.0054 -6.40143 11.3304
RightHand  0.205154 -7.22958 -14.2452
LeftUpLeg  -50.652 10.8668 0.611345
LeftLeg  73.3608 1.45739 6.58094
LeftFoot  -3.7713 0.58034 -8.42077
LeftToes  -1.9349e-011 5.45182e-011 1.33515e-010
